<svg xmlns="http://www.w3.org/2000/svg" viewBox="0 0 460 240" role="img" aria-label="AluWorld AW">
  <defs>
    <linearGradient id="metal" x1="0" y1="0" x2="1" y2="1">
      <stop stop-color="#f3f5f6"/><stop offset=".2" stop-color="#15191d"/><stop offset=".5" stop-color="#d9dee2"/><stop offset=".72" stop-color="#69727a"/><stop offset="1" stop-color="#f3f5f6"/>
    </linearGradient>
    <linearGradient id="blue" x1="0" y1="0" x2="1" y2="1">
      <stop stop-color="#72b7ff"/><stop offset=".48" stop-color="#2f8cff"/><stop offset="1" stop-color="#0752c4"/>
    </linearGradient>
  </defs>
  <rect width="460" height="240" rx="42" fill="#07121d"/>
  <g transform="translate(4)">
    <path d="M30 220 122 20h48l83 200h-56L145 80 88 220Z" fill="url(#metal)"/>
    <path d="M162 20h52l43 119 39-93h42l39 93 43-119h52l-75 200h-39l-42-96-42 96h-39Z" fill="url(#blue)"/>
    <path d="M101 205 137 112 176 205Z" fill="#07121d"/>
    <rect x="121" y="158" width="46" height="39" rx="2" fill="url(#metal)"/>
    <path d="M144 158v39M121 177.5h46" fill="none" stroke="#07121d" stroke-width="4"/>
  </g>
</svg>
